<svg xmlns="http://www.w3.org/2000/svg" xmlns:xlink="http://www.w3.org/1999/xlink" width="2000" zoomAndPan="magnify" viewBox="0 0 1500 239.999995" height="320" preserveAspectRatio="xMidYMid meet" version="1.0"><path fill="#080808" d="M 441.605469 182.511719 L 417.210938 182.511719 L 417.210938 95.863281 L 441.605469 95.863281 L 441.605469 106.476562 C 448.140625 97.898438 456.851562 93.679688 467.886719 93.679688 C 474.128906 93.679688 479.644531 95.132812 484.582031 97.898438 C 489.519531 100.660156 492.859375 104.148438 494.746094 108.511719 C 497.652344 104.148438 501.859375 100.515625 507.234375 97.898438 C 512.605469 95.132812 518.414062 93.824219 524.511719 93.824219 C 533.949219 93.824219 541.5 96.878906 547.015625 102.839844 C 552.535156 108.800781 555.292969 117.378906 555.292969 128.574219 L 555.292969 182.65625 L 530.898438 182.65625 L 530.898438 133.953125 C 530.898438 122.03125 526.109375 116.070312 516.527344 116.070312 C 512.894531 116.070312 509.265625 117.234375 505.925781 119.414062 C 502.585938 121.59375 500.117188 124.503906 498.523438 127.847656 L 498.523438 182.511719 L 474.128906 182.511719 L 474.128906 133.953125 C 474.128906 122.03125 469.335938 116.070312 459.753906 116.070312 C 456.269531 116.070312 452.785156 117.234375 449.300781 119.414062 C 445.816406 121.59375 443.203125 124.355469 441.460938 127.554688 L 441.460938 182.511719 Z M 441.605469 182.511719 " fill-opacity="1" fill-rule="nonzero"/><path fill="#080808" d="M 566.039062 73.035156 C 566.039062 68.820312 567.488281 65.332031 570.25 62.570312 C 573.007812 59.804688 576.492188 58.351562 580.558594 58.351562 C 584.621094 58.351562 588.105469 59.804688 590.867188 62.570312 C 593.625 65.476562 595.078125 68.964844 595.078125 73.035156 C 595.078125 77.105469 593.625 80.597656 590.867188 83.359375 C 588.105469 86.121094 584.621094 87.574219 580.558594 87.574219 C 576.492188 87.574219 573.007812 86.121094 570.25 83.359375 C 567.488281 80.449219 566.039062 76.960938 566.039062 73.035156 Z M 592.898438 182.511719 L 568.503906 182.511719 L 568.503906 95.863281 L 592.898438 95.863281 Z M 592.898438 182.511719 " fill-opacity="1" fill-rule="nonzero"/><path fill="#080808" d="M 698.890625 139.039062 C 698.890625 126.246094 703.390625 115.488281 712.394531 106.765625 C 721.25 98.042969 732.722656 93.535156 746.949219 93.535156 C 761.035156 93.535156 772.503906 97.898438 781.507812 106.765625 C 790.507812 115.488281 795.011719 126.246094 795.011719 139.039062 C 795.011719 151.980469 790.507812 162.882812 781.507812 171.605469 C 772.503906 180.328125 761.035156 184.691406 746.949219 184.691406 C 733.011719 184.691406 721.542969 180.328125 712.394531 171.605469 C 703.390625 162.882812 698.890625 151.980469 698.890625 139.039062 Z M 722.992188 139.039062 C 722.992188 146.019531 725.316406 151.835938 729.816406 156.339844 C 734.320312 160.992188 739.980469 163.320312 746.949219 163.320312 C 753.921875 163.320312 759.582031 160.992188 764.082031 156.339844 C 768.585938 151.542969 770.90625 145.875 770.90625 139.039062 C 770.90625 132.0625 768.585938 126.390625 764.082031 121.886719 C 759.582031 117.234375 753.921875 114.90625 746.949219 114.90625 C 739.980469 114.90625 734.320312 117.234375 729.816406 121.886719 C 725.171875 126.390625 722.992188 132.207031 722.992188 139.039062 Z M 722.992188 139.039062 " fill-opacity="1" fill-rule="nonzero"/><path fill="#080808" d="M 826.953125 127.265625 L 826.953125 182.511719 L 802.5625 182.511719 L 802.5625 95.863281 L 826.953125 95.863281 L 826.953125 106.328125 C 834.648438 97.898438 844.375 93.679688 855.847656 93.679688 C 865.71875 93.679688 873.5625 96.878906 879.078125 103.128906 C 884.597656 109.382812 887.355469 118.25 887.355469 129.445312 L 887.355469 182.511719 L 862.960938 182.511719 L 862.960938 134.386719 C 862.960938 128.136719 861.363281 123.484375 858.316406 120.578125 C 855.265625 117.523438 851.347656 116.070312 846.410156 116.070312 C 842.78125 116.070312 839.003906 117.085938 835.375 119.269531 C 831.890625 121.304688 828.984375 124.066406 826.953125 127.265625 Z M 826.953125 127.265625 " fill-opacity="1" fill-rule="nonzero"/><path fill="#080808" d="M 916.25 182.511719 L 903.761719 182.511719 L 903.761719 98.625 L 916.25 98.625 L 916.25 111.125 C 923.21875 101.386719 933.238281 96.589844 946.449219 96.589844 C 953.273438 96.589844 959.082031 98.042969 963.726562 100.949219 C 968.375 103.859375 971.566406 107.929688 973.308594 113.164062 C 976.503906 108.21875 981.003906 104.148438 986.523438 101.242188 C 992.1875 98.1875 998.429688 96.734375 1005.542969 96.734375 C 1014.835938 96.734375 1022.242188 99.640625 1027.324219 105.457031 C 1032.550781 111.273438 1035.164062 119.558594 1035.164062 130.316406 L 1035.164062 182.511719 L 1022.675781 182.511719 L 1022.675781 133.078125 C 1022.675781 116.652344 1015.707031 108.511719 1001.914062 108.511719 C 996.832031 108.511719 991.75 110.253906 986.8125 113.742188 C 981.730469 117.234375 977.957031 121.59375 975.488281 126.539062 C 975.488281 127.699219 975.488281 129.007812 975.632812 130.464844 C 975.632812 131.917969 975.777344 133.078125 975.777344 133.953125 C 975.777344 134.824219 975.921875 135.40625 975.921875 135.84375 L 975.921875 182.511719 L 963.4375 182.511719 L 963.4375 133.078125 C 963.4375 116.652344 956.46875 108.511719 942.675781 108.511719 C 937.882812 108.511719 932.800781 110.253906 927.71875 113.742188 C 927.71875 113.742188 927.574219 113.742188 927.574219 113.890625 C 920.3125 118.6875 916.394531 127.265625 916.394531 135.84375 L 916.394531 182.511719 Z M 916.25 182.511719 " fill-opacity="1" fill-rule="nonzero"/><path fill="#080808" d="M 1149.285156 182.65625 L 1136.800781 182.65625 L 1136.800781 98.625 L 1149.285156 98.625 L 1149.285156 114.617188 C 1152.480469 109.238281 1156.980469 104.730469 1163.226562 101.53125 C 1169.324219 98.1875 1175.859375 96.589844 1182.683594 96.589844 L 1182.683594 109.238281 C 1178.90625 109.238281 1175.421875 109.820312 1172.226562 110.835938 C 1166.855469 112.289062 1162.210938 114.617188 1158.144531 118.105469 C 1154.078125 121.59375 1151.175781 125.375 1149.285156 129.734375 Z M 1149.285156 182.65625 " fill-opacity="1" fill-rule="nonzero"/><path fill="#080808" d="M 1113.859375 111.5625 L 1113.859375 98.625 L 1126.054688 98.625 L 1126.054688 182.65625 L 1113.859375 182.65625 L 1113.859375 169.71875 C 1109.066406 178.148438 1099.339844 184.546875 1084.53125 184.546875 C 1072.914062 184.546875 1062.894531 180.476562 1054.765625 172.042969 C 1046.777344 163.609375 1042.570312 153.144531 1042.570312 140.640625 C 1042.570312 128.136719 1046.632812 117.816406 1054.765625 109.382812 C 1062.75 100.949219 1072.769531 96.734375 1084.53125 96.734375 C 1099.484375 96.734375 1109.066406 103.128906 1113.859375 111.5625 Z M 1106.453125 164.046875 C 1112.40625 157.796875 1115.3125 150.089844 1115.3125 140.640625 C 1115.3125 131.191406 1112.40625 123.484375 1106.453125 117.523438 C 1100.648438 111.273438 1093.386719 108.21875 1084.382812 108.21875 C 1075.816406 108.21875 1068.847656 111.273438 1063.039062 117.523438 C 1057.523438 123.628906 1054.621094 131.335938 1054.621094 140.640625 C 1054.621094 149.945312 1057.378906 157.796875 1063.039062 164.046875 C 1068.847656 170.152344 1075.816406 173.207031 1084.382812 173.207031 C 1093.386719 173.207031 1100.792969 170.152344 1106.453125 164.046875 Z M 1106.453125 164.046875 " fill-opacity="1" fill-rule="nonzero"/><path fill="#080808" d="M 1190.378906 67.511719 L 1202.863281 67.511719 L 1202.863281 133.226562 L 1242.792969 98.625 L 1259.78125 98.625 L 1215.640625 136.425781 L 1266.023438 182.367188 L 1248.164062 182.367188 L 1202.863281 141.074219 L 1202.863281 182.367188 L 1190.378906 182.367188 Z M 1190.378906 67.511719 " fill-opacity="1" fill-rule="nonzero"/><path fill="#080808" d="M 1304.355469 184.546875 C 1291.289062 184.546875 1280.253906 180.476562 1271.394531 172.1875 C 1262.683594 164.046875 1258.183594 153.578125 1258.183594 140.640625 C 1258.183594 128.136719 1262.105469 117.667969 1269.945312 109.238281 C 1277.929688 100.804688 1288.09375 96.589844 1300.582031 96.589844 C 1307.257812 96.589844 1313.210938 97.898438 1318.441406 100.660156 C 1323.667969 103.421875 1327.730469 106.910156 1330.78125 111.273438 C 1333.832031 115.632812 1336.007812 120.285156 1337.605469 125.230469 C 1339.058594 130.171875 1339.929688 135.117188 1339.929688 140.058594 L 1339.929688 143.546875 L 1271.105469 143.546875 C 1271.832031 152.5625 1275.460938 159.832031 1281.996094 165.210938 C 1288.527344 170.589844 1296.804688 173.351562 1306.824219 173.351562 C 1316.550781 173.351562 1325.410156 170.734375 1333.683594 165.5 L 1333.683594 176.550781 C 1326.859375 181.929688 1316.988281 184.546875 1304.355469 184.546875 Z M 1271.25 133.371094 L 1327.296875 133.371094 C 1327.007812 126.828125 1324.539062 121.011719 1320.035156 115.777344 C 1315.824219 110.398438 1309.148438 107.78125 1300.289062 107.78125 C 1292.015625 107.78125 1285.191406 110.253906 1279.816406 115.488281 C 1274.589844 120.722656 1271.6875 126.683594 1271.25 133.371094 Z M 1271.25 133.371094 " fill-opacity="1" fill-rule="nonzero"/><path fill="#080808" d="M 1430.09375 184.546875 C 1423.414062 184.546875 1416.882812 183.675781 1410.492188 182.074219 C 1404.105469 180.476562 1399.023438 178.292969 1395.539062 175.96875 L 1395.539062 163.175781 C 1405.703125 170.007812 1417.171875 173.351562 1429.804688 173.351562 C 1436.917969 173.351562 1442.582031 172.1875 1446.648438 169.863281 C 1450.710938 167.535156 1452.746094 164.191406 1452.746094 160.121094 C 1452.746094 156.488281 1450.710938 153.578125 1446.792969 151.253906 C 1445.628906 150.378906 1442.726562 149.21875 1437.933594 148.199219 C 1436.484375 147.765625 1434.597656 147.328125 1432.273438 146.746094 C 1429.222656 145.875 1427.191406 145.4375 1426.609375 145.292969 C 1416.15625 142.675781 1408.605469 139.476562 1404.105469 135.84375 C 1399.605469 132.207031 1397.28125 126.972656 1397.28125 119.996094 C 1397.28125 112.726562 1400.183594 107.054688 1406.136719 102.839844 C 1412.089844 98.769531 1420.222656 96.734375 1430.964844 96.734375 C 1443.597656 96.734375 1453.761719 99.207031 1461.457031 104.148438 L 1461.457031 116.507812 C 1452.019531 110.835938 1442 108.074219 1431.546875 108.074219 C 1424.433594 108.074219 1419.203125 109.238281 1415.574219 111.417969 C 1411.945312 113.597656 1410.058594 116.652344 1410.058594 120.429688 C 1410.058594 124.648438 1412.234375 127.699219 1416.445312 129.734375 C 1417.316406 130.027344 1418.332031 130.316406 1419.496094 130.898438 C 1420.65625 131.480469 1421.964844 131.917969 1423.269531 132.207031 L 1427.046875 133.226562 C 1429.804688 134.097656 1432.5625 134.824219 1435.320312 135.117188 C 1445.777344 137.730469 1453.324219 140.785156 1458.261719 144.421875 C 1463.199219 148.054688 1465.667969 153.433594 1465.667969 160.265625 C 1465.667969 167.972656 1462.328125 173.933594 1455.648438 178.148438 C 1448.824219 182.367188 1440.402344 184.546875 1430.09375 184.546875 Z M 1430.09375 184.546875 " fill-opacity="1" fill-rule="nonzero"/><path fill="#080808" d="M 607.707031 58.207031 L 632.101562 58.207031 L 632.101562 182.511719 L 607.707031 182.511719 Z M 607.707031 58.207031 " fill-opacity="1" fill-rule="nonzero"/><path fill="#080808" d="M 695.695312 116.359375 L 695.695312 95.863281 L 671.160156 95.863281 L 671.160156 67.511719 L 646.765625 67.511719 L 646.765625 155.46875 C 646.765625 174.949219 656.203125 184.691406 675.078125 184.691406 C 683.789062 184.691406 690.613281 183.09375 695.695312 180.039062 L 695.695312 159.683594 C 691.484375 161.722656 687.277344 162.738281 683.066406 162.738281 C 678.855469 162.738281 675.949219 161.722656 674.0625 159.832031 C 672.175781 157.941406 671.304688 154.886719 671.304688 150.527344 L 671.304688 116.359375 Z M 695.695312 116.359375 " fill-opacity="1" fill-rule="nonzero"/><path fill="#080808" d="M 1389.003906 109.527344 L 1389.003906 98.625 L 1359.675781 98.625 L 1359.675781 67.511719 L 1347.1875 67.511719 L 1347.1875 158.523438 C 1347.1875 166.664062 1349.222656 172.914062 1353.140625 177.566406 C 1357.0625 182.074219 1363.015625 184.402344 1370.710938 184.402344 C 1378.550781 184.402344 1384.214844 183.09375 1387.84375 180.621094 L 1387.84375 169.136719 C 1383.777344 171.460938 1379.277344 172.625 1374.195312 172.625 C 1368.96875 172.625 1365.191406 171.316406 1362.871094 168.699219 C 1360.691406 166.226562 1359.53125 161.574219 1359.53125 154.886719 L 1359.53125 109.527344 Z M 1389.003906 109.527344 " fill-opacity="1" fill-rule="nonzero"/><path fill="#fe0000" d="M 111.738281 36.636719 L 176.914062 74.800781 L 99.511719 207.328125 L 34.335938 169.167969 Z M 111.738281 36.636719 " fill-opacity="1" fill-rule="nonzero"/><path fill="#fe0000" d="M 209.324219 36.066406 L 274.5 74.230469 L 197.097656 206.757812 L 131.921875 168.59375 Z M 209.324219 36.066406 " fill-opacity="1" fill-rule="nonzero"/><path fill="#080808" d="M 260.015625 122.417969 L 312.910156 153.390625 L 281.976562 206.351562 L 229.085938 175.378906 Z M 260.015625 122.417969 " fill-opacity="1" fill-rule="nonzero"/></svg>